#N canvas 696 233 450 300 10;
#X obj 129 29 ctlin;
#X floatatom 129 51 5 0 0 0 - - -, f 5;
#X floatatom 164 57 5 0 0 0 - - -, f 5;
#X floatatom 203 56 5 0 0 0 - - -, f 5;
#X obj 126 123 pack f f f;
#X obj 161 84 swap;
#X obj 126 99 swap;
#X obj 126 145 route \$1;
#X obj 126 167 unpack f f;
#X obj 126 189 outlet value;
#X obj 212 189 outlet cc;
#X connect 0 0 1 0;
#X connect 0 1 2 0;
#X connect 0 2 3 0;
#X connect 1 0 6 0;
#X connect 2 0 5 0;
#X connect 3 0 5 1;
#X connect 4 0 7 0;
#X connect 5 0 6 1;
#X connect 5 1 4 2;
#X connect 6 0 4 0;
#X connect 6 1 4 1;
#X connect 7 0 8 0;
#X connect 8 0 9 0;
#X connect 8 1 10 0;
