#N canvas 312 272 450 300 10;
#X obj 100 100 bng 15 250 50 0 b-\$1-s b-\$1-r empty 17 7 0 10 -262144
-33289 -33289;
#X obj 100 118 pack \$1;
#X floatatom 245 121 5 0 0 0 - v-#1-r -, f 5;
#X obj 230 162 f;
#X obj 100 145 t f b;
#X obj 100 189 s launchpad_bangs;
#X obj 230 189 s launchpad_value;
#X connect 0 0 1 0;
#X connect 1 0 4 0;
#X connect 2 0 3 1;
#X connect 3 0 6 0;
#X connect 4 0 5 0;
#X connect 4 1 3 0;
#X coords 0 -1 1 1 15 15 2 100 100;
