#N canvas 756 23 524 749 10;
#N canvas 0 23 502 449 launchpadmidiin 0;
#X obj 16 17 notein \$1;
#X floatatom 127 38 5 0 0 0 - - -, f 5;
#X floatatom 170 38 5 0 0 0 - - -, f 5;
#X floatatom 205 38 5 0 0 0 - - -, f 5;
#X obj 155 76 i;
#X obj 127 76 i;
#X obj 127 96 pack f f f;
#X obj 127 56 t b b f, f 10;
#X obj 127 17 ctlin;
#X obj 127 116 route \$1;
#X obj 43 270 i;
#X obj 28 340 s;
#X obj 43 290 makefilename b-%d-r;
#X obj 16 270 i;
#X obj 127 136 unpack f f;
#X obj 16 220 t b b f;
#X obj 16 127 route 104;
#X msg 16 148 121;
#X obj 16 310 moses 127;
#X connect 0 0 16 0;
#X connect 0 1 13 1;
#X connect 1 0 7 0;
#X connect 2 0 4 1;
#X connect 3 0 5 1;
#X connect 4 0 6 1;
#X connect 5 0 6 0;
#X connect 6 0 9 0;
#X connect 7 0 5 0;
#X connect 7 1 4 0;
#X connect 7 2 6 2;
#X connect 8 0 1 0;
#X connect 8 1 2 0;
#X connect 8 2 3 0;
#X connect 9 0 14 0;
#X connect 10 0 12 0;
#X connect 12 0 11 1;
#X connect 13 0 18 0;
#X connect 14 0 15 0;
#X connect 14 1 13 1;
#X connect 15 0 13 0;
#X connect 15 1 10 0;
#X connect 15 2 10 1;
#X connect 16 0 17 0;
#X connect 16 1 15 0;
#X connect 17 0 15 0;
#X connect 18 1 11 0;
#X restore 6 6 pd launchpadmidiin;
#X obj 6 28 inlet command;
#X obj 7 361 outlet;
#N canvas 305 81 604 582 launchpadcolorchange 0;
#X obj 16 12 inlet command;
#X floatatom 219 106 5 0 0 0 - - -, f 5;
#X obj 73 200 route lred red lyellow yellow cyan lgreen green;
#X obj 33 444 makefilename b-%d-r;
#X msg 16 424 color \$1 12 12;
#X obj 126 424 noteout \$1;
#X obj 16 464 s;
#X obj 154 301 i;
#X obj 112 274 unpack f f;
#X msg 73 220 14 13;
#X msg 112 220 13 15;
#X msg 232 220 15 62;
#X msg 272 220 7 28;
#X msg 312 220 16 60;
#X msg 352 220 0 12;
#X msg 152 220 10 29;
#X msg 192 220 11 63;
#X obj 16 301 i;
#X obj 16 270 t b f f b;
#X obj 73 180 list trim;
#X obj 16 160 unpack f s;
#X msg 155 136 4 yellow;
#X msg 219 123 \; b-0-r color \$1 0 0;
#X obj 194 424 ctlout, f 7;
#X obj 233 404 pack \$1;
#X obj 50 301 moses 104;
#X obj 194 404 i;
#X obj 194 384 t b f b;
#X obj 101 321 moses 112;
#X msg 155 117 \$1 green;
#X obj 152 341 route 121;
#X msg 152 361 104;
#X floatatom 155 101 5 0 0 0 - - -, f 5;
#X obj 155 36 tgl 15 0 empty empty empty 17 7 0 10 -262144 -1 -1 0
1;
#X obj 155 80 i 0;
#X obj 180 80 + 1;
#X msg 183 34 0;
#X obj 155 58 metro 500;
#X text 231 63 test & debug;
#X obj 297 445 makefilename v-%d-r;
#X obj 282 466 s;
#X connect 0 0 20 0;
#X connect 1 0 22 0;
#X connect 2 0 9 0;
#X connect 2 1 10 0;
#X connect 2 2 15 0;
#X connect 2 3 16 0;
#X connect 2 4 11 0;
#X connect 2 5 12 0;
#X connect 2 6 13 0;
#X connect 2 7 14 0;
#X connect 3 0 6 1;
#X connect 4 0 6 0;
#X connect 7 0 5 1;
#X connect 7 0 26 1;
#X connect 8 0 17 1;
#X connect 8 1 7 1;
#X connect 9 0 8 0;
#X connect 10 0 8 0;
#X connect 11 0 8 0;
#X connect 12 0 8 0;
#X connect 13 0 8 0;
#X connect 14 0 8 0;
#X connect 15 0 8 0;
#X connect 16 0 8 0;
#X connect 17 0 4 0;
#X connect 17 0 40 0;
#X connect 18 0 17 0;
#X connect 18 1 3 0;
#X connect 18 1 39 0;
#X connect 18 2 25 0;
#X connect 18 3 7 0;
#X connect 19 0 2 0;
#X connect 20 0 18 0;
#X connect 20 1 19 0;
#X connect 21 0 20 0;
#X connect 24 0 23 2;
#X connect 25 0 5 0;
#X connect 25 1 28 0;
#X connect 26 0 23 0;
#X connect 27 0 26 0;
#X connect 27 1 23 1;
#X connect 27 2 24 0;
#X connect 28 0 27 0;
#X connect 28 1 30 0;
#X connect 29 0 20 0;
#X connect 30 0 31 0;
#X connect 30 1 5 0;
#X connect 31 0 5 0;
#X connect 32 0 29 0;
#X connect 33 0 37 0;
#X connect 34 0 35 0;
#X connect 34 0 32 0;
#X connect 35 0 34 1;
#X connect 36 0 34 1;
#X connect 37 0 34 0;
#X connect 39 0 40 1;
#X restore 6 49 pd launchpadcolorchange;
#X obj 204 141 launchpad_bng 5;
#X obj 155 362 outlet;
#X obj 104 116 launchpad_bng 104;
#X obj 104 141 launchpad_bng 0;
#X obj 124 116 launchpad_bng 105;
#X obj 144 116 launchpad_bng 106;
#X obj 164 116 launchpad_bng 107;
#X obj 184 116 launchpad_bng 108;
#X obj 204 116 launchpad_bng 109;
#X obj 224 116 launchpad_bng 110;
#X obj 244 116 launchpad_bng 111;
#X obj 124 141 launchpad_bng 1;
#X obj 144 141 launchpad_bng 2;
#X obj 164 141 launchpad_bng 3;
#X obj 184 141 launchpad_bng 4;
#X obj 104 161 launchpad_bng 16;
#X obj 104 181 launchpad_bng 32;
#X obj 104 201 launchpad_bng 48;
#X obj 104 221 launchpad_bng 64;
#X obj 104 241 launchpad_bng 80;
#X obj 104 261 launchpad_bng 96;
#X obj 104 281 launchpad_bng 112;
#X obj 124 181 launchpad_bng 33;
#X obj 124 201 launchpad_bng 49;
#X obj 124 221 launchpad_bng 65;
#X obj 124 241 launchpad_bng 81;
#X obj 124 261 launchpad_bng 97;
#X obj 124 281 launchpad_bng 113;
#X obj 124 161 launchpad_bng 17;
#X obj 144 161 launchpad_bng 18;
#X obj 144 181 launchpad_bng 34;
#X obj 144 201 launchpad_bng 50;
#X obj 144 221 launchpad_bng 66;
#X obj 144 241 launchpad_bng 82;
#X obj 144 261 launchpad_bng 98;
#X obj 144 281 launchpad_bng 114;
#X obj 164 161 launchpad_bng 19;
#X obj 164 181 launchpad_bng 35;
#X obj 164 201 launchpad_bng 51;
#X obj 164 221 launchpad_bng 67;
#X obj 164 261 launchpad_bng 99;
#X obj 164 281 launchpad_bng 115;
#X obj 164 241 launchpad_bng 83;
#X obj 184 161 launchpad_bng 20;
#X obj 184 181 launchpad_bng 36;
#X obj 184 201 launchpad_bng 52;
#X obj 184 221 launchpad_bng 68;
#X obj 184 241 launchpad_bng 84;
#X obj 184 261 launchpad_bng 100;
#X obj 184 281 launchpad_bng 116;
#X obj 204 161 launchpad_bng 21;
#X obj 204 181 launchpad_bng 37;
#X obj 204 201 launchpad_bng 53;
#X obj 204 221 launchpad_bng 69;
#X obj 204 241 launchpad_bng 85;
#X obj 204 261 launchpad_bng 101;
#X obj 224 141 launchpad_bng 6;
#X obj 224 161 launchpad_bng 22;
#X obj 224 181 launchpad_bng 38;
#X obj 224 201 launchpad_bng 54;
#X obj 224 221 launchpad_bng 70;
#X obj 224 241 launchpad_bng 86;
#X obj 224 281 launchpad_bng 118;
#X obj 224 261 launchpad_bng 102;
#X obj 244 141 launchpad_bng 7;
#X obj 244 161 launchpad_bng 23;
#X obj 244 181 launchpad_bng 39;
#X obj 244 201 launchpad_bng 55;
#X obj 244 221 launchpad_bng 71;
#X obj 244 241 launchpad_bng 87;
#X obj 244 261 launchpad_bng 103;
#X obj 244 281 launchpad_bng 119;
#X obj 269 141 launchpad_bng 8;
#X obj 269 161 launchpad_bng 24;
#X obj 269 181 launchpad_bng 40;
#X obj 269 201 launchpad_bng 56;
#X obj 269 221 launchpad_bng 72;
#X obj 269 241 launchpad_bng 88;
#X obj 269 281 launchpad_bng 120;
#X obj 204 281 launchpad_bng 117;
#X obj 269 261 launchpad_bng 121;
#X obj 7 307 r launchpad_bangs;
#X obj 155 308 r launchpad_value;
#X connect 1 0 3 0;
#X connect 85 0 2 0;
#X connect 86 0 5 0;
#X coords 0 -1 1 1 189 200 1 100 100;
