#N canvas 503 448 450 300 10;
#X obj 26 19 inlet notes;
#X obj 111 19 inlet cc;
#X obj 183 19 inlet pb;
#X obj 26 63 noteout \$1;
#X obj 183 63 bendout \$1;
#X obj 26 41 unpack f f;
#X obj 111 41 unpack f f;
#X obj 111 133 ctlout;
#X obj 144 89 loadbang;
#X obj 144 111 f \$1;
#X connect 0 0 5 0;
#X connect 1 0 6 0;
#X connect 2 0 4 0;
#X connect 5 0 3 0;
#X connect 5 1 3 1;
#X connect 6 0 7 0;
#X connect 6 1 7 1;
#X connect 8 0 9 0;
#X connect 9 0 7 2;
