#N canvas 473 249 450 300 10;
#X obj 26 19 inlet notes;
#X obj 111 19 inlet cc;
#X obj 183 19 inlet pb;
#X obj 26 63 noteout \$1;
#X obj 111 63 ctlout \$1;
#X obj 183 63 bendout \$1;
#X obj 26 41 unpack f f;
#X obj 111 41 unpack f f;
#X connect 0 0 6 0;
#X connect 1 0 7 0;
#X connect 2 0 5 0;
#X connect 6 0 3 0;
#X connect 6 1 3 1;
#X connect 7 0 4 0;
#X connect 7 1 4 1;
