#N canvas 0 23 999 751 12;
#X obj 26 77 bng 15 250 50 0 empty empty empty 17 7 0 10 -262144 -1
-1;
#X obj 26 16 tgl 15 0 empty empty global_metro 17 7 0 10 -262144 -1
-1 1 1;
#X obj 8 18 vsl 15 128 20 240 0 0 empty empty bpm 0 -9 0 10 -262144
-1 -1 6600 1;
#X obj 26 54 metro;
#X floatatom 8 195 5 0 0 0 - - -, f 5;
#N canvas 807 448 450 300 bpm2msec 0;
#X floatatom 38 119 10 0 0 0 - - -, f 10;
#X obj 38 136 t b f;
#X msg 38 156 60000;
#X obj 38 176 /, f 5;
#X floatatom 38 196 5 0 0 0 - - -, f 5;
#X obj 38 79 int;
#X obj 38 59 * 100;
#X obj 38 99 / 100;
#X obj 38 39 inlet bpm;
#X obj 38 213 outlet ms;
#X connect 0 0 1 0;
#X connect 1 0 2 0;
#X connect 1 1 3 1;
#X connect 2 0 3 0;
#X connect 3 0 4 0;
#X connect 4 0 9 0;
#X connect 5 0 7 0;
#X connect 6 0 5 0;
#X connect 7 0 0 0;
#X connect 8 0 6 0;
#X restore 8 172 pd bpm2msec;
#X floatatom 8 152 5 0 0 0 - - -, f 5;
#X text 51 152 bpm;
#X text 51 195 ms/b;
#X obj 26 95 s \$0-click;
#X obj 7 558 midiin;
#X obj 7 581 midiout;
#X obj 127 540 bng 15 250 50 0 empty empty set_MIDI_config 17 7 0 10
-262144 -1 -1;
#X obj 127 581 s pd;
#X msg 127 558 midi-dialog 4 3 0 0 0 0 0 0 0 4 3 0 0 0 0 0 0 0 5 5
;
#X text 9 537 MIDI routing;
#X obj 8 215 s \$0-bpm;
#X obj 161 124 print note;
#X obj 207 101 print ctl;
#X obj 254 78 print bend;
#N canvas 677 69 450 300 ch1midiin 0;
#X obj 18 26 notein 1;
#X obj 18 50 pack f f;
#X obj 18 74 outlet note;
#X obj 129 28 ctlin;
#X floatatom 129 53 5 0 0 0 - - -, f 5;
#X floatatom 181 53 5 0 0 0 - - -, f 5;
#X floatatom 233 53 5 0 0 0 - - -, f 5;
#X obj 155 119 i;
#X obj 190 119 i;
#X obj 129 159 pack f f f;
#X obj 129 184 route 1;
#X obj 129 209 outlet ctl;
#X obj 129 75 t b b f;
#X obj 294 29 bendin 1;
#X obj 294 53 outlet bend;
#X connect 0 0 1 0;
#X connect 0 1 1 1;
#X connect 1 0 2 0;
#X connect 3 0 4 0;
#X connect 3 1 5 0;
#X connect 3 2 6 0;
#X connect 4 0 12 0;
#X connect 5 0 7 1;
#X connect 6 0 8 1;
#X connect 7 0 9 2;
#X connect 8 0 9 0;
#X connect 9 0 10 0;
#X connect 10 0 11 0;
#X connect 12 0 8 0;
#X connect 12 1 7 0;
#X connect 12 2 9 1;
#X connect 13 0 14 0;
#X restore 161 24 pd ch1midiin;
#X obj 603 101 launchpad 17;
#X msg 612 71 5 none;
#X msg 603 41 5 yellow;
#X obj 509 369 r \$0-click;
#X obj 63 31 r \$0-bpm;
#X msg 602 340 1;
#X msg 640 340 -1;
#X obj 602 311 route 0 1;
#X obj 509 429 print status;
#X obj 509 399 midilooper 1;
#X obj 520 489 noteout 1;
#X obj 520 461 unpack f f;
#X obj 634 401 midilooper 1;
#X obj 698 310 route 2 3;
#X msg 701 343 1;
#X msg 739 343 -1;
#X obj 134 235 r \$0-click;
#X obj 134 350 noteout 1;
#X msg 134 302 90;
#X obj 134 326 makenote 100 20;
#X floatatom 910 315 5 0 0 0 - - -, f 5;
#X floatatom 810 321 5 0 0 0 - - -, f 5;
#X obj 179 259 tgl 15 0 empty empty empty 17 7 0 10 -262144 -1 -1 1
1;
#X obj 134 278 spigot;
#X connect 0 0 9 0;
#X connect 1 0 3 0;
#X connect 2 0 6 0;
#X connect 3 0 0 0;
#X connect 4 0 16 0;
#X connect 5 0 4 0;
#X connect 6 0 5 0;
#X connect 10 0 11 0;
#X connect 10 1 11 1;
#X connect 12 0 14 0;
#X connect 14 0 13 0;
#X connect 21 0 28 0;
#X connect 21 0 34 0;
#X connect 21 0 42 0;
#X connect 21 1 41 0;
#X connect 22 0 21 0;
#X connect 23 0 21 0;
#X connect 24 0 30 0;
#X connect 24 0 33 0;
#X connect 25 0 3 1;
#X connect 26 0 30 1;
#X connect 27 0 30 1;
#X connect 28 0 26 0;
#X connect 28 1 27 0;
#X connect 30 0 29 0;
#X connect 30 1 32 0;
#X connect 32 0 31 0;
#X connect 32 1 31 1;
#X connect 33 1 32 0;
#X connect 34 0 35 0;
#X connect 34 1 36 0;
#X connect 35 0 33 1;
#X connect 36 0 33 1;
#X connect 37 0 44 0;
#X connect 39 0 40 0;
#X connect 40 0 38 0;
#X connect 40 1 38 1;
#X connect 43 0 44 1;
#X connect 44 0 39 0;
