#N canvas 0 23 1280 751 10;
#X msg 66 7 listen 8000;
#X obj 66 49 netreceive -u -b;
#X obj 66 71 oscparse;
#X msg 165 625 connect 192.168.3.2 9000;
#X obj 155 679 netsend -u -b;
#X msg 165 652 disconnect;
#X obj 155 555 list prepend send;
#X obj 155 577 list trim;
#X obj 165 601 print out;
#X msg 73 28 listen 0;
#X obj 66 93 route list;
#X obj 66 115 route play mute clear conf, f 30;
#X obj 264 137 s conf;
#X obj 660 40 r conf;
#N canvas 0 22 936 573 metronome 0;
#X obj 30 27 inlet conf;
#X obj 30 49 route metro_toggle metro_bpm metro_pitch metro_channel
;
#X obj 30 71 s metro_toggle;
#X obj 110 92 s metro_bpm;
#X obj 190 71 s metro_pitch;
#X obj 270 92 s metro_channel;
#X obj 181 451 makenote 100 200;
#X obj 208 284 f 110;
#X obj 181 306 tgl 15 0 empty empty empty 17 7 0 10 -262144 -1 -1 1
1;
#X obj 181 326 metro;
#X obj 208 128 vsl 15 128 20 240 0 0 metro_bpm_s metro_bpm bpm 0 -9
0 10 -262144 -1 -1 6297 1;
#X obj 181 348 bng 15 250 50 0 metro_click_s empty empty 17 7 0 10
-262144 -1 -1;
#N canvas 807 448 450 300 bpm2msec 0;
#X floatatom 38 119 10 0 0 0 - - -, f 10;
#X obj 38 136 t b f;
#X msg 38 156 60000;
#X obj 38 176 /, f 5;
#X floatatom 38 196 5 0 0 0 - - -, f 5;
#X obj 38 79 int;
#X obj 38 59 * 100;
#X obj 38 99 / 100;
#X obj 38 39 inlet bpm;
#X obj 38 213 outlet ms;
#X connect 0 0 1 0;
#X connect 1 0 2 0;
#X connect 1 1 3 1;
#X connect 2 0 3 0;
#X connect 3 0 4 0;
#X connect 4 0 9 0;
#X connect 5 0 7 0;
#X connect 6 0 5 0;
#X connect 7 0 0 0;
#X connect 8 0 6 0;
#X restore 208 305 pd bpm2msec;
#X obj 181 428 i 70;
#X floatatom 215 431 5 0 0 0 - - -, f 5;
#X obj 232 495 f 1;
#X obj 181 517 noteout 1;
#X obj 214 346 r metro_toggle;
#X obj 202 407 r metro_pitch;
#X obj 232 473 r metro_channel;
#X obj 90 264 loadbang;
#X msg 90 286 1;
#X obj 181 368 spigot;
#X connect 0 0 1 0;
#X connect 1 0 2 0;
#X connect 1 1 3 0;
#X connect 1 2 4 0;
#X connect 1 3 5 0;
#X connect 6 0 16 0;
#X connect 6 1 16 1;
#X connect 7 0 12 0;
#X connect 8 0 9 0;
#X connect 9 0 11 0;
#X connect 10 0 7 0;
#X connect 11 0 22 0;
#X connect 12 0 9 1;
#X connect 13 0 6 0;
#X connect 13 0 14 0;
#X connect 15 0 16 2;
#X connect 17 0 22 1;
#X connect 18 0 13 1;
#X connect 19 0 15 0;
#X connect 20 0 21 0;
#X connect 21 0 8 0;
#X connect 22 0 13 0;
#X restore 745 84 pd metronome;
#X obj 745 106 bng 15 250 50 0 empty metro_click_s empty 17 7 0 10
-262144 -1 -1;
#X floatatom 785 107 5 0 0 0 bpm metro_bpm_s -, f 5;
#X obj 14 157 route loop arm;
#X obj 443 244 loopermidiout 1;
#X obj 580 244 loopermidiout 2;
#X obj 717 244 loopermidiout 3;
#X obj 851 244 loopermidiout 4;
#N canvas 510 52 356 334 arm 0;
#X obj 14 15 inlet arm;
#X obj 14 103 route 1 2 3 4 5 6 7 8 9 10, f 34;
#X obj 14 126 tgl 15 0 arm-1 empty empty 17 7 0 10 -262144 -1 -1 0
1;
#X obj 34 126 tgl 15 0 arm-2 empty empty 17 7 0 10 -262144 -1 -1 0
1;
#X obj 54 126 tgl 15 0 arm-3 empty empty 17 7 0 10 -262144 -1 -1 0
1;
#X obj 74 126 tgl 15 0 arm-4 empty empty 17 7 0 10 -262144 -1 -1 0
1;
#X obj 94 126 tgl 15 0 arm-5 empty empty 17 7 0 10 -262144 -1 -1 0
1;
#X obj 114 126 tgl 15 0 arm-6 empty empty 17 7 0 10 -262144 -1 -1 0
1;
#X obj 134 126 tgl 15 0 arm-7 empty empty 17 7 0 10 -262144 -1 -1 0
1;
#X obj 154 126 tgl 15 0 arm-8 empty empty 17 7 0 10 -262144 -1 -1 0
1;
#X obj 174 126 tgl 15 0 arm-9 empty empty 17 7 0 10 -262144 -1 -1 0
1;
#X obj 194 126 tgl 15 0 arm-10 empty empty 17 7 0 10 -262144 -1 -1
0 1;
#X obj 14 37 convertosc;
#X obj 14 59 unpack f f f;
#X obj 14 81 pack f f;
#X obj 14 173 armablemidirouter 1 1;
#X obj 34 193 armablemidirouter 1 2;
#X obj 54 213 armablemidirouter 1 3;
#X obj 74 233 armablemidirouter 1 4;
#X obj 94 253 armablemidirouter 1 5;
#X obj 114 273 armablemidirouter 1 6;
#X obj 134 293 armablemidirouter 1 7;
#X obj 154 173 armablemidirouter 1 8;
#X obj 174 193 armablemidirouter 1 9;
#X obj 194 213 armablemidirouter 1 10;
#X connect 0 0 12 0;
#X connect 1 0 2 0;
#X connect 1 1 3 0;
#X connect 1 2 4 0;
#X connect 1 3 5 0;
#X connect 1 4 6 0;
#X connect 1 5 7 0;
#X connect 1 6 8 0;
#X connect 1 7 9 0;
#X connect 1 8 10 0;
#X connect 1 9 11 0;
#X connect 2 0 15 0;
#X connect 3 0 16 0;
#X connect 4 0 17 0;
#X connect 5 0 18 0;
#X connect 6 0 19 0;
#X connect 7 0 20 0;
#X connect 8 0 21 0;
#X connect 9 0 22 0;
#X connect 10 0 23 0;
#X connect 11 0 24 0;
#X connect 12 0 13 0;
#X connect 13 0 14 0;
#X connect 13 2 14 1;
#X connect 14 0 1 0;
#X restore 54 179 pd arm;
#X obj 14 201 convertosc;
#X obj 717 224 r n-3;
#X obj 760 224 r cc-3;
#X obj 804 224 r pb-3;
#X obj 443 224 r n-1;
#X obj 486 224 r cc-1;
#X obj 530 224 r pb-1;
#X obj 580 224 r n-2;
#X obj 623 224 r cc-2;
#X obj 667 224 r pb-2;
#X obj 110 157 route loop;
#X obj 110 179 convertosc;
#X obj 264 157 route loop;
#X obj 264 179 convertosc;
#X obj 14 223 unpack f f f;
#X msg 83 245 1;
#X obj 14 266 pack f f f;
#X obj 110 201 unpack f f f;
#X obj 179 222 t b f;
#X obj 264 201 unpack f f f;
#X msg 333 222 -1;
#X obj 264 243 pack f f f;
#X obj 110 272 pack f f s f;
#X msg 179 244 symbol mute;
#N canvas 703 118 445 625 channel1 0;
#X obj 320 85 r metro_bpm_s;
#X obj 221 85 r metro_click_s;
#X obj 254 125 s n-1;
#X obj 291 125 s cc-1;
#X obj 334 125 s pb-1;
#X obj 42 25 inlet loop;
#X obj 42 47 route 5 4 3 2 1;
#X obj 320 155 r metro_bpm_s;
#X obj 221 155 r metro_click_s;
#X obj 254 195 s n-1;
#X obj 291 195 s cc-1;
#X obj 334 195 s pb-1;
#X obj 320 225 r metro_bpm_s;
#X obj 221 225 r metro_click_s;
#X obj 254 265 s n-1;
#X obj 291 265 s cc-1;
#X obj 334 265 s pb-1;
#X obj 320 295 r metro_bpm_s;
#X obj 221 295 r metro_click_s;
#X obj 254 335 s n-1;
#X obj 291 335 s cc-1;
#X obj 334 335 s pb-1;
#X obj 320 365 r metro_bpm_s;
#X obj 221 365 r metro_click_s;
#X obj 254 405 s n-1;
#X obj 291 405 s cc-1;
#X obj 334 405 s pb-1;
#X obj 106 481 pack f f;
#X obj 42 127 t b f;
#X msg 42 149 5;
#X obj 42 197 t b f;
#X obj 42 267 t b f;
#X obj 42 337 t b f;
#X obj 42 407 t b f;
#X msg 42 219 4;
#X msg 42 289 3;
#X msg 42 359 2;
#X msg 42 429 1;
#X obj 106 525 outlet status;
#X obj 221 105 midilooper 1 120, f 17;
#X obj 221 175 midilooper 1 120, f 17;
#X obj 221 245 midilooper 1 120, f 17;
#X obj 221 315 midilooper 1 120, f 17;
#X obj 221 385 midilooper 1 120, f 17;
#X obj 106 503 list prepend 1;
#X connect 0 0 39 2;
#X connect 1 0 39 0;
#X connect 5 0 6 0;
#X connect 6 0 39 1;
#X connect 6 1 40 1;
#X connect 6 2 41 1;
#X connect 6 3 42 1;
#X connect 6 4 43 1;
#X connect 7 0 40 2;
#X connect 8 0 40 0;
#X connect 12 0 41 2;
#X connect 13 0 41 0;
#X connect 17 0 42 2;
#X connect 18 0 42 0;
#X connect 22 0 43 2;
#X connect 23 0 43 0;
#X connect 27 0 44 0;
#X connect 28 0 29 0;
#X connect 28 1 27 1;
#X connect 29 0 27 0;
#X connect 30 0 34 0;
#X connect 30 1 27 1;
#X connect 31 0 35 0;
#X connect 31 1 27 1;
#X connect 32 0 36 0;
#X connect 32 1 27 1;
#X connect 33 0 37 0;
#X connect 33 1 27 1;
#X connect 34 0 27 0;
#X connect 35 0 27 0;
#X connect 36 0 27 0;
#X connect 37 0 27 0;
#X connect 39 0 28 0;
#X connect 39 1 2 0;
#X connect 39 2 3 0;
#X connect 39 3 4 0;
#X connect 40 0 30 0;
#X connect 40 1 9 0;
#X connect 40 2 10 0;
#X connect 40 3 11 0;
#X connect 41 0 31 0;
#X connect 41 1 14 0;
#X connect 41 2 15 0;
#X connect 41 3 16 0;
#X connect 42 0 32 0;
#X connect 42 1 19 0;
#X connect 42 2 20 0;
#X connect 42 3 21 0;
#X connect 43 0 33 0;
#X connect 43 1 24 0;
#X connect 43 2 25 0;
#X connect 43 3 26 0;
#X connect 44 0 38 0;
#X restore 110 333 pd channel1;
#X obj 110 303 route 1 2 3 4 5 6 7 8 9 10;
#N canvas 703 118 445 625 channel10 0;
#X obj 320 85 r metro_bpm_s;
#X obj 221 85 r metro_click_s;
#X obj 42 25 inlet loop;
#X obj 42 47 route 5 4 3 2 1;
#X obj 320 155 r metro_bpm_s;
#X obj 221 155 r metro_click_s;
#X obj 320 225 r metro_bpm_s;
#X obj 221 225 r metro_click_s;
#X obj 320 295 r metro_bpm_s;
#X obj 221 295 r metro_click_s;
#X obj 320 365 r metro_bpm_s;
#X obj 221 365 r metro_click_s;
#X obj 106 481 pack f f;
#X obj 42 127 t b f;
#X msg 42 149 5;
#X obj 42 197 t b f;
#X obj 42 267 t b f;
#X obj 42 337 t b f;
#X obj 42 407 t b f;
#X msg 42 219 4;
#X msg 42 289 3;
#X msg 42 359 2;
#X msg 42 429 1;
#X obj 106 525 outlet status;
#X obj 221 105 midilooper 1 120, f 17;
#X obj 221 175 midilooper 1 120, f 17;
#X obj 221 245 midilooper 1 120, f 17;
#X obj 221 315 midilooper 1 120, f 17;
#X obj 221 385 midilooper 1 120, f 17;
#X obj 106 503 list prepend 10;
#X obj 254 405 s n-10;
#X obj 291 405 s cc-10;
#X obj 334 405 s pb-10;
#X obj 334 335 s pb-10;
#X obj 291 335 s cc-10;
#X obj 254 335 s n-10;
#X obj 254 265 s n-10;
#X obj 291 265 s cc-10;
#X obj 334 265 s pb-10;
#X obj 334 195 s pb-10;
#X obj 291 195 s cc-10;
#X obj 254 195 s n-10;
#X obj 254 125 s n-10;
#X obj 291 125 s cc-10;
#X obj 334 125 s pb-10;
#X connect 0 0 24 2;
#X connect 1 0 24 0;
#X connect 2 0 3 0;
#X connect 3 0 24 1;
#X connect 3 1 25 1;
#X connect 3 2 26 1;
#X connect 3 3 27 1;
#X connect 3 4 28 1;
#X connect 4 0 25 2;
#X connect 5 0 25 0;
#X connect 6 0 26 2;
#X connect 7 0 26 0;
#X connect 8 0 27 2;
#X connect 9 0 27 0;
#X connect 10 0 28 2;
#X connect 11 0 28 0;
#X connect 12 0 29 0;
#X connect 13 0 14 0;
#X connect 13 1 12 1;
#X connect 14 0 12 0;
#X connect 15 0 19 0;
#X connect 15 1 12 1;
#X connect 16 0 20 0;
#X connect 16 1 12 1;
#X connect 17 0 21 0;
#X connect 17 1 12 1;
#X connect 18 0 22 0;
#X connect 18 1 12 1;
#X connect 19 0 12 0;
#X connect 20 0 12 0;
#X connect 21 0 12 0;
#X connect 22 0 12 0;
#X connect 24 0 13 0;
#X connect 24 1 42 0;
#X connect 24 2 43 0;
#X connect 24 3 44 0;
#X connect 25 0 15 0;
#X connect 25 1 41 0;
#X connect 25 2 40 0;
#X connect 25 3 39 0;
#X connect 26 0 16 0;
#X connect 26 1 36 0;
#X connect 26 2 37 0;
#X connect 26 3 38 0;
#X connect 27 0 17 0;
#X connect 27 1 35 0;
#X connect 27 2 34 0;
#X connect 27 3 33 0;
#X connect 28 0 18 0;
#X connect 28 1 30 0;
#X connect 28 2 31 0;
#X connect 28 3 32 0;
#X connect 29 0 23 0;
#X restore 247 417 pd channel10;
#N canvas 703 118 445 625 channel9 0;
#X obj 320 85 r metro_bpm_s;
#X obj 221 85 r metro_click_s;
#X obj 42 25 inlet loop;
#X obj 42 47 route 5 4 3 2 1;
#X obj 320 155 r metro_bpm_s;
#X obj 221 155 r metro_click_s;
#X obj 320 225 r metro_bpm_s;
#X obj 221 225 r metro_click_s;
#X obj 320 295 r metro_bpm_s;
#X obj 221 295 r metro_click_s;
#X obj 320 365 r metro_bpm_s;
#X obj 221 365 r metro_click_s;
#X obj 106 481 pack f f;
#X obj 42 127 t b f;
#X msg 42 149 5;
#X obj 42 197 t b f;
#X obj 42 267 t b f;
#X obj 42 337 t b f;
#X obj 42 407 t b f;
#X msg 42 219 4;
#X msg 42 289 3;
#X msg 42 359 2;
#X msg 42 429 1;
#X obj 106 525 outlet status;
#X obj 221 105 midilooper 1 120, f 17;
#X obj 221 175 midilooper 1 120, f 17;
#X obj 221 245 midilooper 1 120, f 17;
#X obj 221 315 midilooper 1 120, f 17;
#X obj 221 385 midilooper 1 120, f 17;
#X obj 106 503 list prepend 9;
#X obj 254 405 s n-9;
#X obj 291 405 s cc-9;
#X obj 334 405 s pb-9;
#X obj 334 335 s pb-9;
#X obj 291 335 s cc-9;
#X obj 254 335 s n-9;
#X obj 254 265 s n-9;
#X obj 291 265 s cc-9;
#X obj 334 265 s pb-9;
#X obj 254 195 s n-9;
#X obj 291 195 s cc-9;
#X obj 334 195 s pb-9;
#X obj 254 125 s n-9;
#X obj 291 125 s cc-9;
#X obj 334 125 s pb-9;
#X connect 0 0 24 2;
#X connect 1 0 24 0;
#X connect 2 0 3 0;
#X connect 3 0 24 1;
#X connect 3 1 25 1;
#X connect 3 2 26 1;
#X connect 3 3 27 1;
#X connect 3 4 28 1;
#X connect 4 0 25 2;
#X connect 5 0 25 0;
#X connect 6 0 26 2;
#X connect 7 0 26 0;
#X connect 8 0 27 2;
#X connect 9 0 27 0;
#X connect 10 0 28 2;
#X connect 11 0 28 0;
#X connect 12 0 29 0;
#X connect 13 0 14 0;
#X connect 13 1 12 1;
#X connect 14 0 12 0;
#X connect 15 0 19 0;
#X connect 15 1 12 1;
#X connect 16 0 20 0;
#X connect 16 1 12 1;
#X connect 17 0 21 0;
#X connect 17 1 12 1;
#X connect 18 0 22 0;
#X connect 18 1 12 1;
#X connect 19 0 12 0;
#X connect 20 0 12 0;
#X connect 21 0 12 0;
#X connect 22 0 12 0;
#X connect 24 0 13 0;
#X connect 24 1 42 0;
#X connect 24 2 43 0;
#X connect 24 3 44 0;
#X connect 25 0 15 0;
#X connect 25 1 39 0;
#X connect 25 2 40 0;
#X connect 25 3 41 0;
#X connect 26 0 16 0;
#X connect 26 1 36 0;
#X connect 26 2 37 0;
#X connect 26 3 38 0;
#X connect 27 0 17 0;
#X connect 27 1 35 0;
#X connect 27 2 34 0;
#X connect 27 3 33 0;
#X connect 28 0 18 0;
#X connect 28 1 30 0;
#X connect 28 2 31 0;
#X connect 28 3 32 0;
#X connect 29 0 23 0;
#X restore 232 396 pd channel9;
#N canvas 703 118 445 625 channel8 0;
#X obj 320 85 r metro_bpm_s;
#X obj 221 85 r metro_click_s;
#X obj 42 25 inlet loop;
#X obj 42 47 route 5 4 3 2 1;
#X obj 320 155 r metro_bpm_s;
#X obj 221 155 r metro_click_s;
#X obj 320 225 r metro_bpm_s;
#X obj 221 225 r metro_click_s;
#X obj 320 295 r metro_bpm_s;
#X obj 221 295 r metro_click_s;
#X obj 320 365 r metro_bpm_s;
#X obj 221 365 r metro_click_s;
#X obj 106 481 pack f f;
#X obj 42 127 t b f;
#X msg 42 149 5;
#X obj 42 197 t b f;
#X obj 42 267 t b f;
#X obj 42 337 t b f;
#X obj 42 407 t b f;
#X msg 42 219 4;
#X msg 42 289 3;
#X msg 42 359 2;
#X msg 42 429 1;
#X obj 106 525 outlet status;
#X obj 221 105 midilooper 1 120, f 17;
#X obj 221 175 midilooper 1 120, f 17;
#X obj 221 245 midilooper 1 120, f 17;
#X obj 221 315 midilooper 1 120, f 17;
#X obj 221 385 midilooper 1 120, f 17;
#X obj 106 503 list prepend 8;
#X obj 254 405 s n-8;
#X obj 291 405 s cc-8;
#X obj 334 405 s pb-8;
#X obj 334 335 s pb-8;
#X obj 291 335 s cc-8;
#X obj 254 335 s n-8;
#X obj 254 265 s n-8;
#X obj 291 265 s cc-8;
#X obj 334 265 s pb-8;
#X obj 334 195 s pb-8;
#X obj 291 195 s cc-8;
#X obj 254 195 s n-8;
#X obj 254 125 s n-8;
#X obj 291 125 s cc-8;
#X obj 334 125 s pb-8;
#X connect 0 0 24 2;
#X connect 1 0 24 0;
#X connect 2 0 3 0;
#X connect 3 0 24 1;
#X connect 3 1 25 1;
#X connect 3 2 26 1;
#X connect 3 3 27 1;
#X connect 3 4 28 1;
#X connect 4 0 25 2;
#X connect 5 0 25 0;
#X connect 6 0 26 2;
#X connect 7 0 26 0;
#X connect 8 0 27 2;
#X connect 9 0 27 0;
#X connect 10 0 28 2;
#X connect 11 0 28 0;
#X connect 12 0 29 0;
#X connect 13 0 14 0;
#X connect 13 1 12 1;
#X connect 14 0 12 0;
#X connect 15 0 19 0;
#X connect 15 1 12 1;
#X connect 16 0 20 0;
#X connect 16 1 12 1;
#X connect 17 0 21 0;
#X connect 17 1 12 1;
#X connect 18 0 22 0;
#X connect 18 1 12 1;
#X connect 19 0 12 0;
#X connect 20 0 12 0;
#X connect 21 0 12 0;
#X connect 22 0 12 0;
#X connect 24 0 13 0;
#X connect 24 1 42 0;
#X connect 24 2 43 0;
#X connect 24 3 44 0;
#X connect 25 0 15 0;
#X connect 25 1 41 0;
#X connect 25 2 40 0;
#X connect 25 3 39 0;
#X connect 26 0 16 0;
#X connect 26 1 36 0;
#X connect 26 2 37 0;
#X connect 26 3 38 0;
#X connect 27 0 17 0;
#X connect 27 1 35 0;
#X connect 27 2 34 0;
#X connect 27 3 33 0;
#X connect 28 0 18 0;
#X connect 28 1 30 0;
#X connect 28 2 31 0;
#X connect 28 3 32 0;
#X connect 29 0 23 0;
#X restore 217 375 pd channel8;
#N canvas 703 118 445 625 channel7 0;
#X obj 320 85 r metro_bpm_s;
#X obj 221 85 r metro_click_s;
#X obj 42 25 inlet loop;
#X obj 42 47 route 5 4 3 2 1;
#X obj 320 155 r metro_bpm_s;
#X obj 221 155 r metro_click_s;
#X obj 320 225 r metro_bpm_s;
#X obj 221 225 r metro_click_s;
#X obj 320 295 r metro_bpm_s;
#X obj 221 295 r metro_click_s;
#X obj 320 365 r metro_bpm_s;
#X obj 221 365 r metro_click_s;
#X obj 106 481 pack f f;
#X obj 42 127 t b f;
#X msg 42 149 5;
#X obj 42 197 t b f;
#X obj 42 267 t b f;
#X obj 42 337 t b f;
#X obj 42 407 t b f;
#X msg 42 219 4;
#X msg 42 289 3;
#X msg 42 359 2;
#X msg 42 429 1;
#X obj 106 525 outlet status;
#X obj 221 105 midilooper 1 120, f 17;
#X obj 221 175 midilooper 1 120, f 17;
#X obj 221 245 midilooper 1 120, f 17;
#X obj 221 315 midilooper 1 120, f 17;
#X obj 221 385 midilooper 1 120, f 17;
#X obj 106 503 list prepend 7;
#X obj 254 405 s n-7;
#X obj 291 405 s cc-7;
#X obj 334 405 s pb-7;
#X obj 334 335 s pb-7;
#X obj 291 335 s cc-7;
#X obj 254 335 s n-7;
#X obj 254 265 s n-7;
#X obj 291 265 s cc-7;
#X obj 334 265 s pb-7;
#X obj 334 195 s pb-7;
#X obj 291 195 s cc-7;
#X obj 254 195 s n-7;
#X obj 254 125 s n-7;
#X obj 291 125 s cc-7;
#X obj 334 125 s pb-7;
#X connect 0 0 24 2;
#X connect 1 0 24 0;
#X connect 2 0 3 0;
#X connect 3 0 24 1;
#X connect 3 1 25 1;
#X connect 3 2 26 1;
#X connect 3 3 27 1;
#X connect 3 4 28 1;
#X connect 4 0 25 2;
#X connect 5 0 25 0;
#X connect 6 0 26 2;
#X connect 7 0 26 0;
#X connect 8 0 27 2;
#X connect 9 0 27 0;
#X connect 10 0 28 2;
#X connect 11 0 28 0;
#X connect 12 0 29 0;
#X connect 13 0 14 0;
#X connect 13 1 12 1;
#X connect 14 0 12 0;
#X connect 15 0 19 0;
#X connect 15 1 12 1;
#X connect 16 0 20 0;
#X connect 16 1 12 1;
#X connect 17 0 21 0;
#X connect 17 1 12 1;
#X connect 18 0 22 0;
#X connect 18 1 12 1;
#X connect 19 0 12 0;
#X connect 20 0 12 0;
#X connect 21 0 12 0;
#X connect 22 0 12 0;
#X connect 24 0 13 0;
#X connect 24 1 42 0;
#X connect 24 2 43 0;
#X connect 24 3 44 0;
#X connect 25 0 15 0;
#X connect 25 1 41 0;
#X connect 25 2 40 0;
#X connect 25 3 39 0;
#X connect 26 0 16 0;
#X connect 26 1 36 0;
#X connect 26 2 37 0;
#X connect 26 3 38 0;
#X connect 27 0 17 0;
#X connect 27 1 35 0;
#X connect 27 2 34 0;
#X connect 27 3 33 0;
#X connect 28 0 18 0;
#X connect 28 1 30 0;
#X connect 28 2 31 0;
#X connect 28 3 32 0;
#X connect 29 0 23 0;
#X restore 201 354 pd channel7;
#N canvas 703 118 445 625 channel6 0;
#X obj 320 85 r metro_bpm_s;
#X obj 221 85 r metro_click_s;
#X obj 42 25 inlet loop;
#X obj 42 47 route 5 4 3 2 1;
#X obj 320 155 r metro_bpm_s;
#X obj 221 155 r metro_click_s;
#X obj 320 225 r metro_bpm_s;
#X obj 221 225 r metro_click_s;
#X obj 320 295 r metro_bpm_s;
#X obj 221 295 r metro_click_s;
#X obj 320 365 r metro_bpm_s;
#X obj 221 365 r metro_click_s;
#X obj 106 481 pack f f;
#X obj 42 127 t b f;
#X msg 42 149 5;
#X obj 42 197 t b f;
#X obj 42 267 t b f;
#X obj 42 337 t b f;
#X obj 42 407 t b f;
#X msg 42 219 4;
#X msg 42 289 3;
#X msg 42 359 2;
#X msg 42 429 1;
#X obj 106 525 outlet status;
#X obj 221 105 midilooper 1 120, f 17;
#X obj 221 175 midilooper 1 120, f 17;
#X obj 221 245 midilooper 1 120, f 17;
#X obj 221 315 midilooper 1 120, f 17;
#X obj 221 385 midilooper 1 120, f 17;
#X obj 106 503 list prepend 6;
#X obj 254 405 s n-6;
#X obj 291 405 s cc-6;
#X obj 334 405 s pb-6;
#X obj 334 335 s pb-6;
#X obj 291 335 s cc-6;
#X obj 254 335 s n-6;
#X obj 254 265 s n-6;
#X obj 291 265 s cc-6;
#X obj 334 265 s pb-6;
#X obj 334 195 s pb-6;
#X obj 291 195 s cc-6;
#X obj 254 195 s n-6;
#X obj 254 125 s n-6;
#X obj 291 125 s cc-6;
#X obj 334 125 s pb-6;
#X connect 0 0 24 2;
#X connect 1 0 24 0;
#X connect 2 0 3 0;
#X connect 3 0 24 1;
#X connect 3 1 25 1;
#X connect 3 2 26 1;
#X connect 3 3 27 1;
#X connect 3 4 28 1;
#X connect 4 0 25 2;
#X connect 5 0 25 0;
#X connect 6 0 26 2;
#X connect 7 0 26 0;
#X connect 8 0 27 2;
#X connect 9 0 27 0;
#X connect 10 0 28 2;
#X connect 11 0 28 0;
#X connect 12 0 29 0;
#X connect 13 0 14 0;
#X connect 13 1 12 1;
#X connect 14 0 12 0;
#X connect 15 0 19 0;
#X connect 15 1 12 1;
#X connect 16 0 20 0;
#X connect 16 1 12 1;
#X connect 17 0 21 0;
#X connect 17 1 12 1;
#X connect 18 0 22 0;
#X connect 18 1 12 1;
#X connect 19 0 12 0;
#X connect 20 0 12 0;
#X connect 21 0 12 0;
#X connect 22 0 12 0;
#X connect 24 0 13 0;
#X connect 24 1 42 0;
#X connect 24 2 43 0;
#X connect 24 3 44 0;
#X connect 25 0 15 0;
#X connect 25 1 41 0;
#X connect 25 2 40 0;
#X connect 25 3 39 0;
#X connect 26 0 16 0;
#X connect 26 1 36 0;
#X connect 26 2 37 0;
#X connect 26 3 38 0;
#X connect 27 0 17 0;
#X connect 27 1 35 0;
#X connect 27 2 34 0;
#X connect 27 3 33 0;
#X connect 28 0 18 0;
#X connect 28 1 30 0;
#X connect 28 2 31 0;
#X connect 28 3 32 0;
#X connect 29 0 23 0;
#X restore 186 333 pd channel6;
#N canvas 703 118 445 625 channel5 0;
#X obj 320 85 r metro_bpm_s;
#X obj 221 85 r metro_click_s;
#X obj 42 25 inlet loop;
#X obj 42 47 route 5 4 3 2 1;
#X obj 320 155 r metro_bpm_s;
#X obj 221 155 r metro_click_s;
#X obj 320 225 r metro_bpm_s;
#X obj 221 225 r metro_click_s;
#X obj 320 295 r metro_bpm_s;
#X obj 221 295 r metro_click_s;
#X obj 320 365 r metro_bpm_s;
#X obj 221 365 r metro_click_s;
#X obj 106 481 pack f f;
#X obj 42 127 t b f;
#X msg 42 149 5;
#X obj 42 197 t b f;
#X obj 42 267 t b f;
#X obj 42 337 t b f;
#X obj 42 407 t b f;
#X msg 42 219 4;
#X msg 42 289 3;
#X msg 42 359 2;
#X msg 42 429 1;
#X obj 106 525 outlet status;
#X obj 221 105 midilooper 1 120, f 17;
#X obj 221 175 midilooper 1 120, f 17;
#X obj 221 245 midilooper 1 120, f 17;
#X obj 221 315 midilooper 1 120, f 17;
#X obj 221 385 midilooper 1 120, f 17;
#X obj 106 503 list prepend 5;
#X obj 254 405 s n-5;
#X obj 291 405 s cc-5;
#X obj 334 405 s pb-5;
#X obj 334 335 s pb-5;
#X obj 291 335 s cc-5;
#X obj 254 335 s n-5;
#X obj 254 265 s n-5;
#X obj 291 265 s cc-5;
#X obj 334 265 s pb-5;
#X obj 334 195 s pb-5;
#X obj 291 195 s cc-5;
#X obj 254 195 s n-5;
#X obj 334 125 s pb-5;
#X obj 291 125 s cc-5;
#X obj 254 125 s n-5;
#X connect 0 0 24 2;
#X connect 1 0 24 0;
#X connect 2 0 3 0;
#X connect 3 0 24 1;
#X connect 3 1 25 1;
#X connect 3 2 26 1;
#X connect 3 3 27 1;
#X connect 3 4 28 1;
#X connect 4 0 25 2;
#X connect 5 0 25 0;
#X connect 6 0 26 2;
#X connect 7 0 26 0;
#X connect 8 0 27 2;
#X connect 9 0 27 0;
#X connect 10 0 28 2;
#X connect 11 0 28 0;
#X connect 12 0 29 0;
#X connect 13 0 14 0;
#X connect 13 1 12 1;
#X connect 14 0 12 0;
#X connect 15 0 19 0;
#X connect 15 1 12 1;
#X connect 16 0 20 0;
#X connect 16 1 12 1;
#X connect 17 0 21 0;
#X connect 17 1 12 1;
#X connect 18 0 22 0;
#X connect 18 1 12 1;
#X connect 19 0 12 0;
#X connect 20 0 12 0;
#X connect 21 0 12 0;
#X connect 22 0 12 0;
#X connect 24 0 13 0;
#X connect 24 1 44 0;
#X connect 24 2 43 0;
#X connect 24 3 42 0;
#X connect 25 0 15 0;
#X connect 25 1 41 0;
#X connect 25 2 40 0;
#X connect 25 3 39 0;
#X connect 26 0 16 0;
#X connect 26 1 36 0;
#X connect 26 2 37 0;
#X connect 26 3 38 0;
#X connect 27 0 17 0;
#X connect 27 1 35 0;
#X connect 27 2 34 0;
#X connect 27 3 33 0;
#X connect 28 0 18 0;
#X connect 28 1 30 0;
#X connect 28 2 31 0;
#X connect 28 3 32 0;
#X connect 29 0 23 0;
#X restore 171 417 pd channel5;
#N canvas 703 118 445 625 channel4 0;
#X obj 320 85 r metro_bpm_s;
#X obj 221 85 r metro_click_s;
#X obj 42 25 inlet loop;
#X obj 42 47 route 5 4 3 2 1;
#X obj 320 155 r metro_bpm_s;
#X obj 221 155 r metro_click_s;
#X obj 320 225 r metro_bpm_s;
#X obj 221 225 r metro_click_s;
#X obj 320 295 r metro_bpm_s;
#X obj 221 295 r metro_click_s;
#X obj 320 365 r metro_bpm_s;
#X obj 221 365 r metro_click_s;
#X obj 106 481 pack f f;
#X obj 42 127 t b f;
#X msg 42 149 5;
#X obj 42 197 t b f;
#X obj 42 267 t b f;
#X obj 42 337 t b f;
#X obj 42 407 t b f;
#X msg 42 219 4;
#X msg 42 289 3;
#X msg 42 359 2;
#X msg 42 429 1;
#X obj 106 525 outlet status;
#X obj 221 105 midilooper 1 120, f 17;
#X obj 221 175 midilooper 1 120, f 17;
#X obj 221 245 midilooper 1 120, f 17;
#X obj 221 315 midilooper 1 120, f 17;
#X obj 221 385 midilooper 1 120, f 17;
#X obj 106 503 list prepend 4;
#X obj 254 405 s n-4;
#X obj 291 405 s cc-4;
#X obj 334 405 s pb-4;
#X obj 334 335 s pb-4;
#X obj 291 335 s cc-4;
#X obj 254 335 s n-4;
#X obj 254 265 s n-4;
#X obj 291 265 s cc-4;
#X obj 334 265 s pb-4;
#X obj 334 195 s pb-4;
#X obj 291 195 s cc-4;
#X obj 254 195 s n-4;
#X obj 254 125 s n-4;
#X obj 291 125 s cc-4;
#X obj 334 125 s pb-4;
#X connect 0 0 24 2;
#X connect 1 0 24 0;
#X connect 2 0 3 0;
#X connect 3 0 24 1;
#X connect 3 1 25 1;
#X connect 3 2 26 1;
#X connect 3 3 27 1;
#X connect 3 4 28 1;
#X connect 4 0 25 2;
#X connect 5 0 25 0;
#X connect 6 0 26 2;
#X connect 7 0 26 0;
#X connect 8 0 27 2;
#X connect 9 0 27 0;
#X connect 10 0 28 2;
#X connect 11 0 28 0;
#X connect 12 0 29 0;
#X connect 13 0 14 0;
#X connect 13 1 12 1;
#X connect 14 0 12 0;
#X connect 15 0 19 0;
#X connect 15 1 12 1;
#X connect 16 0 20 0;
#X connect 16 1 12 1;
#X connect 17 0 21 0;
#X connect 17 1 12 1;
#X connect 18 0 22 0;
#X connect 18 1 12 1;
#X connect 19 0 12 0;
#X connect 20 0 12 0;
#X connect 21 0 12 0;
#X connect 22 0 12 0;
#X connect 24 0 13 0;
#X connect 24 1 42 0;
#X connect 24 2 43 0;
#X connect 24 3 44 0;
#X connect 25 0 15 0;
#X connect 25 1 41 0;
#X connect 25 2 40 0;
#X connect 25 3 39 0;
#X connect 26 0 16 0;
#X connect 26 1 36 0;
#X connect 26 2 37 0;
#X connect 26 3 38 0;
#X connect 27 0 17 0;
#X connect 27 1 35 0;
#X connect 27 2 34 0;
#X connect 27 3 33 0;
#X connect 28 0 18 0;
#X connect 28 1 30 0;
#X connect 28 2 31 0;
#X connect 28 3 32 0;
#X connect 29 0 23 0;
#X restore 155 396 pd channel4;
#N canvas 703 118 445 625 channel3 0;
#X obj 320 85 r metro_bpm_s;
#X obj 221 85 r metro_click_s;
#X obj 42 25 inlet loop;
#X obj 42 47 route 5 4 3 2 1;
#X obj 320 155 r metro_bpm_s;
#X obj 221 155 r metro_click_s;
#X obj 320 225 r metro_bpm_s;
#X obj 221 225 r metro_click_s;
#X obj 320 295 r metro_bpm_s;
#X obj 221 295 r metro_click_s;
#X obj 320 365 r metro_bpm_s;
#X obj 221 365 r metro_click_s;
#X obj 106 481 pack f f;
#X obj 42 127 t b f;
#X msg 42 149 5;
#X obj 42 197 t b f;
#X obj 42 267 t b f;
#X obj 42 337 t b f;
#X obj 42 407 t b f;
#X msg 42 219 4;
#X msg 42 289 3;
#X msg 42 359 2;
#X msg 42 429 1;
#X obj 106 525 outlet status;
#X obj 221 105 midilooper 1 120, f 17;
#X obj 221 175 midilooper 1 120, f 17;
#X obj 221 245 midilooper 1 120, f 17;
#X obj 221 315 midilooper 1 120, f 17;
#X obj 221 385 midilooper 1 120, f 17;
#X obj 106 503 list prepend 3;
#X obj 334 405 s pb-3;
#X obj 291 405 s cc-3;
#X obj 254 405 s n-3;
#X obj 254 335 s n-3;
#X obj 291 335 s cc-3;
#X obj 334 335 s pb-3;
#X obj 334 265 s pb-3;
#X obj 291 265 s cc-3;
#X obj 254 265 s n-3;
#X obj 254 195 s n-3;
#X obj 291 195 s cc-3;
#X obj 334 195 s pb-3;
#X obj 334 125 s pb-3;
#X obj 291 125 s cc-3;
#X obj 254 125 s n-3;
#X connect 0 0 24 2;
#X connect 1 0 24 0;
#X connect 2 0 3 0;
#X connect 3 0 24 1;
#X connect 3 1 25 1;
#X connect 3 2 26 1;
#X connect 3 3 27 1;
#X connect 3 4 28 1;
#X connect 4 0 25 2;
#X connect 5 0 25 0;
#X connect 6 0 26 2;
#X connect 7 0 26 0;
#X connect 8 0 27 2;
#X connect 9 0 27 0;
#X connect 10 0 28 2;
#X connect 11 0 28 0;
#X connect 12 0 29 0;
#X connect 13 0 14 0;
#X connect 13 1 12 1;
#X connect 14 0 12 0;
#X connect 15 0 19 0;
#X connect 15 1 12 1;
#X connect 16 0 20 0;
#X connect 16 1 12 1;
#X connect 17 0 21 0;
#X connect 17 1 12 1;
#X connect 18 0 22 0;
#X connect 18 1 12 1;
#X connect 19 0 12 0;
#X connect 20 0 12 0;
#X connect 21 0 12 0;
#X connect 22 0 12 0;
#X connect 24 0 13 0;
#X connect 24 1 44 0;
#X connect 24 2 43 0;
#X connect 24 3 42 0;
#X connect 25 0 15 0;
#X connect 25 1 39 0;
#X connect 25 2 40 0;
#X connect 25 3 41 0;
#X connect 26 0 16 0;
#X connect 26 1 38 0;
#X connect 26 2 37 0;
#X connect 26 3 36 0;
#X connect 27 0 17 0;
#X connect 27 1 33 0;
#X connect 27 2 34 0;
#X connect 27 3 35 0;
#X connect 28 0 18 0;
#X connect 28 1 32 0;
#X connect 28 2 31 0;
#X connect 28 3 30 0;
#X connect 29 0 23 0;
#X restore 140 375 pd channel3;
#N canvas 703 118 445 625 channel2 0;
#X obj 320 85 r metro_bpm_s;
#X obj 221 85 r metro_click_s;
#X obj 42 25 inlet loop;
#X obj 42 47 route 5 4 3 2 1;
#X obj 320 155 r metro_bpm_s;
#X obj 221 155 r metro_click_s;
#X obj 320 225 r metro_bpm_s;
#X obj 221 225 r metro_click_s;
#X obj 320 295 r metro_bpm_s;
#X obj 221 295 r metro_click_s;
#X obj 320 365 r metro_bpm_s;
#X obj 221 365 r metro_click_s;
#X obj 106 481 pack f f;
#X obj 42 127 t b f;
#X msg 42 149 5;
#X obj 42 197 t b f;
#X obj 42 267 t b f;
#X obj 42 337 t b f;
#X obj 42 407 t b f;
#X msg 42 219 4;
#X msg 42 289 3;
#X msg 42 359 2;
#X msg 42 429 1;
#X obj 106 525 outlet status;
#X obj 221 105 midilooper 1 120, f 17;
#X obj 221 175 midilooper 1 120, f 17;
#X obj 221 245 midilooper 1 120, f 17;
#X obj 221 315 midilooper 1 120, f 17;
#X obj 221 385 midilooper 1 120, f 17;
#X obj 106 503 list prepend 2;
#X obj 254 405 s n-2;
#X obj 291 405 s cc-2;
#X obj 334 405 s pb-2;
#X obj 254 335 s n-2;
#X obj 291 335 s cc-2;
#X obj 334 335 s pb-2;
#X obj 334 265 s pb-2;
#X obj 291 265 s cc-2;
#X obj 254 265 s n-2;
#X obj 254 195 s n-2;
#X obj 291 195 s cc-2;
#X obj 334 195 s pb-2;
#X obj 334 125 s pb-2;
#X obj 291 125 s cc-2;
#X obj 254 125 s n-2;
#X connect 0 0 24 2;
#X connect 1 0 24 0;
#X connect 2 0 3 0;
#X connect 3 0 24 1;
#X connect 3 1 25 1;
#X connect 3 2 26 1;
#X connect 3 3 27 1;
#X connect 3 4 28 1;
#X connect 4 0 25 2;
#X connect 5 0 25 0;
#X connect 6 0 26 2;
#X connect 7 0 26 0;
#X connect 8 0 27 2;
#X connect 9 0 27 0;
#X connect 10 0 28 2;
#X connect 11 0 28 0;
#X connect 12 0 29 0;
#X connect 13 0 14 0;
#X connect 13 1 12 1;
#X connect 14 0 12 0;
#X connect 15 0 19 0;
#X connect 15 1 12 1;
#X connect 16 0 20 0;
#X connect 16 1 12 1;
#X connect 17 0 21 0;
#X connect 17 1 12 1;
#X connect 18 0 22 0;
#X connect 18 1 12 1;
#X connect 19 0 12 0;
#X connect 20 0 12 0;
#X connect 21 0 12 0;
#X connect 22 0 12 0;
#X connect 24 0 13 0;
#X connect 24 1 44 0;
#X connect 24 2 43 0;
#X connect 24 3 42 0;
#X connect 25 0 15 0;
#X connect 25 1 39 0;
#X connect 25 2 40 0;
#X connect 25 3 41 0;
#X connect 26 0 16 0;
#X connect 26 1 38 0;
#X connect 26 2 37 0;
#X connect 26 3 36 0;
#X connect 27 0 17 0;
#X connect 27 1 33 0;
#X connect 27 2 34 0;
#X connect 27 3 35 0;
#X connect 28 0 18 0;
#X connect 28 1 30 0;
#X connect 28 2 31 0;
#X connect 28 3 32 0;
#X connect 29 0 23 0;
#X restore 125 354 pd channel2;
#X obj 155 533 oscformat /play/loop;
#X obj 155 465 unpack f f f;
#X obj 155 487 swap;
#X obj 155 510 pack f f f;
#X obj 851 224 r n-4;
#X obj 894 224 r cc-4;
#X obj 938 224 r pb-4;
#X obj 443 274 r n-5;
#X obj 486 274 r cc-5;
#X obj 530 274 r pb-5;
#X obj 580 274 r n-6;
#X obj 623 274 r cc-6;
#X obj 667 274 r pb-6;
#X obj 717 274 r n-7;
#X obj 760 274 r cc-7;
#X obj 804 274 r pb-7;
#X obj 851 274 r n-8;
#X obj 894 274 r cc-8;
#X obj 938 274 r pb-8;
#X obj 851 294 loopermidiout 8;
#X obj 717 294 loopermidiout 7;
#X obj 580 294 loopermidiout 6;
#X obj 443 294 loopermidiout 5;
#X obj 443 321 r n-9;
#X obj 486 321 r cc-9;
#X obj 530 321 r pb-9;
#X obj 443 341 loopermidiout 9;
#X obj 577 321 r n-10;
#X obj 623 321 r cc-10;
#X obj 670 321 r pb-10;
#X obj 577 341 loopermidiout 10;
#X obj 660 62 route noteoff;
#X obj 660 84 convertosc;
#X obj 660 106 unpack f f f;
#X obj 660 178 ctlout 123;
#X obj 660 147 swap;
#X connect 0 0 1 0;
#X connect 1 0 2 0;
#X connect 2 0 10 0;
#X connect 3 0 4 0;
#X connect 5 0 4 0;
#X connect 6 0 7 0;
#X connect 7 0 4 0;
#X connect 7 0 8 0;
#X connect 9 0 1 0;
#X connect 10 0 11 0;
#X connect 11 0 17 0;
#X connect 11 1 33 0;
#X connect 11 2 35 0;
#X connect 11 3 12 0;
#X connect 13 0 89 0;
#X connect 17 0 23 0;
#X connect 17 1 22 0;
#X connect 23 0 37 0;
#X connect 24 0 20 0;
#X connect 25 0 20 1;
#X connect 26 0 20 2;
#X connect 27 0 18 0;
#X connect 28 0 18 1;
#X connect 29 0 18 2;
#X connect 30 0 19 0;
#X connect 31 0 19 1;
#X connect 32 0 19 2;
#X connect 33 0 34 0;
#X connect 34 0 40 0;
#X connect 35 0 36 0;
#X connect 36 0 42 0;
#X connect 37 0 39 0;
#X connect 37 1 39 1;
#X connect 37 2 38 0;
#X connect 38 0 39 2;
#X connect 39 0 48 0;
#X connect 40 0 45 0;
#X connect 40 1 45 1;
#X connect 40 2 41 0;
#X connect 41 0 46 0;
#X connect 41 1 45 3;
#X connect 42 0 44 0;
#X connect 42 1 44 1;
#X connect 42 2 43 0;
#X connect 43 0 44 2;
#X connect 44 0 48 0;
#X connect 45 0 48 0;
#X connect 46 0 45 2;
#X connect 47 0 59 0;
#X connect 48 0 47 0;
#X connect 48 1 57 0;
#X connect 48 2 56 0;
#X connect 48 3 55 0;
#X connect 48 4 54 0;
#X connect 48 5 53 0;
#X connect 48 6 52 0;
#X connect 48 7 51 0;
#X connect 48 8 50 0;
#X connect 48 9 49 0;
#X connect 49 0 59 0;
#X connect 50 0 59 0;
#X connect 51 0 59 0;
#X connect 52 0 59 0;
#X connect 53 0 59 0;
#X connect 54 0 59 0;
#X connect 55 0 59 0;
#X connect 56 0 59 0;
#X connect 57 0 59 0;
#X connect 58 0 6 0;
#X connect 59 0 60 0;
#X connect 59 1 60 1;
#X connect 59 2 61 2;
#X connect 60 0 61 0;
#X connect 60 1 61 1;
#X connect 61 0 58 0;
#X connect 62 0 21 0;
#X connect 63 0 21 1;
#X connect 64 0 21 2;
#X connect 65 0 80 0;
#X connect 66 0 80 1;
#X connect 67 0 80 2;
#X connect 68 0 79 0;
#X connect 69 0 79 1;
#X connect 70 0 79 2;
#X connect 71 0 78 0;
#X connect 72 0 78 1;
#X connect 73 0 78 2;
#X connect 74 0 77 0;
#X connect 75 0 77 1;
#X connect 76 0 77 2;
#X connect 81 0 84 0;
#X connect 82 0 84 1;
#X connect 83 0 84 2;
#X connect 85 0 88 0;
#X connect 86 0 88 1;
#X connect 87 0 88 2;
#X connect 89 0 90 0;
#X connect 89 1 14 0;
#X connect 90 0 91 0;
#X connect 91 0 93 0;
#X connect 91 2 93 1;
#X connect 93 0 92 0;
#X connect 93 1 92 2;
